<svg width="22" height="22" viewBox="0 0 22 22" fill="none" xmlns="http://www.w3.org/2000/svg">
<ellipse cx="10.8571" cy="10.8562" rx="10.8571" ry="10.8562" fill="white"/>
<path d="M16.4733 11.4854L15.5982 8.18751C14.8985 5.55509 12.2989 4.01787 9.79285 4.74964C8.11748 5.24077 6.83522 6.65766 6.45615 8.44044L5.77992 11.6303C5.45 13.1847 6.38362 14.7219 7.86478 15.0681C8.05899 15.1148 8.26022 15.1369 8.45911 15.1369H8.658C9.06281 16.6054 10.5252 17.4526 11.9245 17.0277C12.7949 16.765 13.4735 16.0504 13.7262 15.1369H13.8222C15.3384 15.1369 16.5669 13.8477 16.5669 12.2565C16.5669 11.9962 16.5341 11.7359 16.4663 11.4854H16.4733ZM14.8213 13.0496C14.5873 13.3762 14.2176 13.5678 13.8268 13.5678H8.45911C7.76884 13.5678 7.21194 12.9809 7.21194 12.2589C7.21194 12.1632 7.2213 12.0674 7.24236 11.9741L7.91859 8.77931C8.30234 6.95724 10.0198 5.80802 11.7537 6.21074C12.9166 6.48085 13.8409 7.40171 14.1568 8.60496L15.0296 11.9029C15.1372 12.2982 15.06 12.723 14.8213 13.0496Z" fill="#0D257B" stroke="#0D257B" stroke-width="0.142851"/>
</svg>
